<?xml version="1.0" encoding="iso-8859-1"?>
<!-- Generator: Adobe Illustrator 19.0.0, SVG Export Plug-In . SVG Version: 6.00 Build 0)  -->
<svg version="1.1" id="Capa_1" xmlns="http://www.w3.org/2000/svg" xmlns:xlink="http://www.w3.org/1999/xlink" x="0px" y="0px"
	 viewBox="0 0 511.998 511.998" style="enable-background:new 0 0 511.998 511.998;" xml:space="preserve">
<g>
	<g>
		<path d="M509.898,217.644c-2.005-2.709-5.184-4.309-8.555-4.309H10.676c-3.371,0-6.549,1.6-8.576,4.288
			c-2.005,2.709-2.624,6.208-1.643,9.429l54.869,182.933c6.827,22.741,27.371,38.016,51.093,38.016h299.179
			c23.723,0,44.267-15.275,51.072-37.995l54.869-182.933C512.522,223.852,511.903,220.332,509.898,217.644z M436.255,403.863
			c-4.117,13.632-16.427,22.805-30.677,22.805H106.42c-14.251,0-26.56-9.173-30.656-22.805L25.012,234.668h461.995L436.255,403.863z
			"/>
	</g>
</g>
<g>
	<g>
		<path d="M229.3,65.41c-5.099-2.923-11.627-1.173-14.571,3.968l-85.333,149.333c-2.901,5.12-1.131,11.627,3.989,14.549
			c1.664,0.96,3.477,1.408,5.291,1.408c3.691,0,7.296-1.92,9.28-5.376L233.29,79.959C236.191,74.839,234.42,68.332,229.3,65.41z"/>
	</g>
</g>
<g>
	<g>
		<path d="M382.623,218.711L297.29,69.378c-2.987-5.141-9.536-6.891-14.571-3.968c-5.141,2.923-6.912,9.429-3.989,14.549
			l85.333,149.333c1.984,3.456,5.589,5.376,9.28,5.376c1.813,0,3.627-0.448,5.291-1.408
			C383.775,230.338,385.546,223.831,382.623,218.711z"/>
	</g>
</g>
<g>
</g>
<g>
</g>
<g>
</g>
<g>
</g>
<g>
</g>
<g>
</g>
<g>
</g>
<g>
</g>
<g>
</g>
<g>
</g>
<g>
</g>
<g>
</g>
<g>
</g>
<g>
</g>
<g>
</g>
</svg>
